<?xml version="1.0" encoding="iso-8859-1"?>
<!-- Generator: Adobe Illustrator 24.0.2, SVG Export Plug-In . SVG Version: 6.00 Build 0)  -->
<svg version="1.1" id="Layer_1" xmlns="http://www.w3.org/2000/svg" xmlns:xlink="http://www.w3.org/1999/xlink" x="0px" y="0px"
	 viewBox="0 0 360 108" style="enable-background:new 0 0 360 108;" xml:space="preserve">
<polygon style="fill:#FFFFFF;" points="83.897,29.441 39.611,73.727 34.495,68.61 83.727,19.378 110.901,46.553 108.457,48.997 
	110.958,51.499 116.131,46.325 83.897,14.091 54.165,43.824 39.725,29.384 20.225,48.883 22.727,51.385 39.725,34.387 
	51.379,46.041 31.823,65.597 12.323,46.098 39.441,18.98 56.496,36.035 58.997,33.534 39.441,13.978 7.15,46.268 39.441,78.559 
	83.727,34.273 88.786,39.333 39.441,88.679 12.323,61.561 14.881,59.003 12.38,56.501 7.207,61.675 39.554,94.022 69.571,64.006 
	84.068,78.502 103.624,58.946 101.009,56.331 84.011,73.215 72.186,61.391 72.243,61.334 91.572,42.005 111.072,61.504 
	83.841,88.735 66.899,71.794 64.341,74.352 83.954,93.966 116.188,61.732 "/>
<g>
	<path style="fill:#FFFFFF;" d="M161.248,53.879c-0.244-4.594-0.538-10.117-0.489-14.223h-0.146
		c-1.124,3.861-2.493,7.967-4.154,12.512l-5.816,15.982h-3.226l-5.327-15.688c-1.564-4.644-2.884-8.896-3.813-12.806h-0.098
		c-0.098,4.105-0.342,9.629-0.635,14.564l-0.88,14.125h-4.057l2.297-32.941h5.425l5.621,15.934
		c1.369,4.057,2.493,7.673,3.323,11.094h0.147c0.831-3.323,2.004-6.939,3.47-11.094l5.865-15.934h5.425l2.053,32.941h-4.154
		L161.248,53.879z"/>
	<path style="fill:#FFFFFF;" d="M186.029,68.346l-0.342-2.981h-0.146c-1.319,1.857-3.861,3.52-7.234,3.52
		c-4.79,0-7.233-3.373-7.233-6.794c0-5.718,5.083-8.846,14.223-8.797v-0.489c0-1.955-0.538-5.474-5.377-5.474
		c-2.199,0-4.496,0.685-6.158,1.76l-0.977-2.835c1.955-1.271,4.79-2.102,7.771-2.102c7.234,0,8.994,4.937,8.994,9.677v8.847
		c0,2.053,0.098,4.056,0.391,5.669H186.029z M185.395,56.273c-4.692-0.098-10.02,0.733-10.02,5.328c0,2.785,1.857,4.104,4.056,4.104
		c3.08,0,5.035-1.954,5.719-3.958c0.146-0.44,0.244-0.929,0.244-1.369V56.273z"/>
	<path style="fill:#FFFFFF;" d="M196.49,52.07c0-2.785-0.049-5.181-0.195-7.38h3.764l0.146,4.644h0.195
		c1.075-3.177,3.666-5.181,6.549-5.181c0.489,0,0.831,0.049,1.223,0.146v4.057c-0.44-0.098-0.88-0.146-1.467-0.146
		c-3.03,0-5.181,2.297-5.767,5.522c-0.098,0.587-0.195,1.271-0.195,2.004v12.609h-4.253V52.07z"/>
	<path style="fill:#FFFFFF;" d="M216.921,55.541h0.099c0.586-0.831,1.417-1.857,2.102-2.688l6.939-8.162h5.181l-9.14,9.727
		l10.41,13.929h-5.229l-8.161-11.339l-2.2,2.443v8.896h-4.252v-34.7h4.252V55.541z"/>
	<path style="fill:#FFFFFF;" d="M237.988,57.3c0.098,5.816,3.812,8.211,8.112,8.211c3.079,0,4.937-0.537,6.55-1.222l0.732,3.079
		c-1.515,0.685-4.104,1.466-7.868,1.466c-7.282,0-11.632-4.789-11.632-11.925s4.203-12.756,11.094-12.756
		c7.723,0,9.775,6.793,9.775,11.143c0,0.88-0.098,1.564-0.146,2.004H237.988z M250.598,54.221c0.049-2.736-1.124-6.988-5.963-6.988
		c-4.35,0-6.256,4.008-6.598,6.988H250.598z"/>
	<path style="fill:#FFFFFF;" d="M265.261,37.897v6.793h6.158v3.274h-6.158v12.757c0,2.932,0.831,4.594,3.226,4.594
		c1.125,0,1.955-0.146,2.493-0.293l0.195,3.226c-0.831,0.342-2.15,0.586-3.813,0.586c-2.004,0-3.616-0.635-4.643-1.808
		c-1.222-1.271-1.662-3.373-1.662-6.158V47.965h-3.665V44.69h3.665v-5.669L265.261,37.897z"/>
	<path style="fill:#FFFFFF;" d="M281.049,38.044c0.049,1.466-1.026,2.639-2.737,2.639c-1.515,0-2.59-1.173-2.59-2.639
		c0-1.516,1.124-2.688,2.688-2.688C280.022,35.355,281.049,36.528,281.049,38.044z M276.259,68.346V44.69h4.302v23.655H276.259z"/>
	<path style="fill:#FFFFFF;" d="M287.696,51.093c0-2.443-0.049-4.447-0.195-6.402h3.813l0.244,3.91h0.098
		c1.173-2.248,3.91-4.447,7.82-4.447c3.274,0,8.357,1.955,8.357,10.067v14.125h-4.301V54.71c0-3.813-1.418-6.989-5.475-6.989
		c-2.834,0-5.033,2.004-5.767,4.398c-0.195,0.538-0.293,1.271-0.293,2.004v14.223h-4.302V51.093z"/>
	<path style="fill:#FFFFFF;" d="M319.223,35.404v32.941h-4.252V35.404H319.223z"/>
	<path style="fill:#FFFFFF;" d="M331.979,57.984l-3.422,10.361h-4.398l11.192-32.941h5.132l11.241,32.941h-4.546l-3.519-10.361
		H331.979z M342.78,54.661l-3.226-9.481c-0.733-2.15-1.222-4.105-1.711-6.012h-0.098c-0.488,1.955-1.026,3.959-1.661,5.963
		l-3.226,9.53H342.78z"/>
</g>
</svg>
